<svg xmlns="http://www.w3.org/2000/svg" width="95" height="26" fill="none"><mask id="a" width="76" height="16" x="19" y="5" fill="#000" maskUnits="userSpaceOnUse"><path fill="#fff" d="M19 5h76v16H19z"/><path d="M25.14 20.24q-1.48 0-2.6-.54a4.24 4.24 0 0 1-1.74-1.54q-.62-1-.64-2.38h2.24q.02 1.06.72 1.82.72.74 2 .74 1.18 0 1.84-.54.66-.56.66-1.44 0-.74-.4-1.22-.38-.5-1.2-.88-.82-.4-2.12-.82-1.74-.56-2.56-1.54-.82-1-.82-2.44 0-1.66 1.2-2.68t3.3-1.02q2.04 0 3.28 1.06 1.24 1.04 1.28 2.9h-2.26a1.8 1.8 0 0 0-.28-.96 2.14 2.14 0 0 0-.8-.78q-.52-.32-1.28-.32-.94-.02-1.58.46-.64.46-.64 1.26 0 .98.78 1.54.78.54 2.54 1.12a9 9 0 0 1 1.94.88 3.7 3.7 0 0 1 1.34 1.3q.5.78.5 2 0 1.12-.56 2.04-.56.9-1.62 1.44-1.04.54-2.52.54M36.412 20V6h4.74q1.6 0 2.64.56 1.04.54 1.54 1.5t.5 2.2-.5 2.2-1.54 1.52q-1.04.54-2.64.54h-2.62V20zm2.12-7.38h2.52q1.36 0 1.98-.64.64-.64.64-1.72 0-1.06-.64-1.7-.62-.66-1.98-.66h-2.52zm18.452 7.62q-1.7 0-2.94-.88t-1.9-2.5-.66-3.86.66-3.86 1.9-2.5 2.94-.88q1.72 0 2.94.88 1.24.88 1.9 2.5t.66 3.86-.66 3.86-1.9 2.5q-1.22.88-2.94.88m0-2q1.5 0 2.42-1.34.92-1.36.92-3.9t-.92-3.88q-.92-1.36-2.42-1.36-1.52 0-2.44 1.36-.9 1.34-.9 3.88t.9 3.9q.92 1.34 2.44 1.34M71.917 20V7.9h-3.76V6h9.64v1.9h-3.76V20zm17.192.24q-1.48 0-2.6-.54a4.24 4.24 0 0 1-1.74-1.54q-.62-1-.64-2.38h2.24q.02 1.06.72 1.82.72.74 2 .74 1.18 0 1.84-.54.66-.56.66-1.44 0-.74-.4-1.22-.381-.5-1.2-.88-.82-.4-2.12-.82-1.74-.56-2.56-1.54-.82-1-.82-2.44 0-1.66 1.2-2.68t3.3-1.02q2.04 0 3.28 1.06 1.24 1.04 1.28 2.9h-2.26a1.8 1.8 0 0 0-.28-.96 2.14 2.14 0 0 0-.8-.78q-.52-.32-1.28-.32-.94-.02-1.58.46-.64.46-.64 1.26 0 .98.78 1.54.78.54 2.54 1.12a9 9 0 0 1 1.94.88 3.7 3.7 0 0 1 1.34 1.3q.5.78.5 2 0 1.12-.56 2.04-.561.9-1.62 1.44-1.041.54-2.52.54"/></mask><path fill="#212121" d="M25.14 20.24q-1.48 0-2.6-.54a4.24 4.24 0 0 1-1.74-1.54q-.62-1-.64-2.38h2.24q.02 1.06.72 1.82.72.74 2 .74 1.18 0 1.84-.54.66-.56.66-1.44 0-.74-.4-1.22-.38-.5-1.2-.88-.82-.4-2.12-.82-1.74-.56-2.56-1.54-.82-1-.82-2.44 0-1.66 1.2-2.68t3.3-1.02q2.04 0 3.28 1.06 1.24 1.04 1.28 2.9h-2.26a1.8 1.8 0 0 0-.28-.96 2.14 2.14 0 0 0-.8-.78q-.52-.32-1.28-.32-.94-.02-1.58.46-.64.46-.64 1.26 0 .98.78 1.54.78.54 2.54 1.12a9 9 0 0 1 1.94.88 3.7 3.7 0 0 1 1.34 1.3q.5.78.5 2 0 1.12-.56 2.04-.56.9-1.62 1.44-1.04.54-2.52.54M36.412 20V6h4.74q1.6 0 2.64.56 1.04.54 1.54 1.5t.5 2.2-.5 2.2-1.54 1.52q-1.04.54-2.64.54h-2.62V20zm2.12-7.38h2.52q1.36 0 1.98-.64.64-.64.64-1.72 0-1.06-.64-1.7-.62-.66-1.98-.66h-2.52zm18.452 7.62q-1.7 0-2.94-.88t-1.9-2.5-.66-3.86.66-3.86 1.9-2.5 2.94-.88q1.72 0 2.94.88 1.24.88 1.9 2.5t.66 3.86-.66 3.86-1.9 2.5q-1.22.88-2.94.88m0-2q1.5 0 2.42-1.34.92-1.36.92-3.9t-.92-3.88q-.92-1.36-2.42-1.36-1.52 0-2.44 1.36-.9 1.34-.9 3.88t.9 3.9q.92 1.34 2.44 1.34M71.917 20V7.9h-3.76V6h9.64v1.9h-3.76V20zm17.192.24q-1.48 0-2.6-.54a4.24 4.24 0 0 1-1.74-1.54q-.62-1-.64-2.38h2.24q.02 1.06.72 1.82.72.74 2 .74 1.18 0 1.84-.54.66-.56.66-1.44 0-.74-.4-1.22-.381-.5-1.2-.88-.82-.4-2.12-.82-1.74-.56-2.56-1.54-.82-1-.82-2.44 0-1.66 1.2-2.68t3.3-1.02q2.04 0 3.28 1.06 1.24 1.04 1.28 2.9h-2.26a1.8 1.8 0 0 0-.28-.96 2.14 2.14 0 0 0-.8-.78q-.52-.32-1.28-.32-.94-.02-1.58.46-.64.46-.64 1.26 0 .98.78 1.54.78.54 2.54 1.12a9 9 0 0 1 1.94.88 3.7 3.7 0 0 1 1.34 1.3q.5.78.5 2 0 1.12-.56 2.04-.561.9-1.62 1.44-1.041.54-2.52.54"/><path fill="#212121" d="m22.54 19.7-.088.18h.001zm-1.74-1.54-.17.105.002.003zm-.64-2.38v-.2h-.203l.003.203zm2.24 0 .2-.004-.004-.196H22.4zm.72 1.82-.147.135.004.005zm3.84.2.127.155.002-.002zm.26-2.66-.16.121.006.007zm-1.2-.88-.088.18.004.002zm-2.12-.82.062-.19zm-2.56-1.54-.155.127.002.001zm6.96-5.08-.13.152.002.001zm1.28 2.9v.2h.204l-.004-.204zm-2.26 0h-.2v.2h.2zm-.28-.96-.173.1.002.004zm-.8-.78-.105.17.005.003zm-1.28-.32-.004.2h.004zm-1.58.46.117.162.003-.002zm.14 2.8-.117.162.003.002zm2.54 1.12-.063.19zm1.94.88-.105.17.005.003zm1.34 1.3-.172.103.004.005zm-.06 4.04.17.106v-.002zm-1.62 1.44-.09-.178h-.002zm-2.52.34q-1.442-.001-2.513-.52l-.174.36c.779.376 1.676.56 2.687.56zm-2.512-.52a4.04 4.04 0 0 1-1.66-1.468l-.337.216a4.44 4.44 0 0 0 1.82 1.611zm-1.658-1.465c-.391-.631-.597-1.388-.61-2.278l-.4.006q.02 1.427.67 2.482zm-.81-2.075h2.24v-.4h-2.24zm2.04-.196c.014.754.272 1.408.773 1.951l.294-.27a2.47 2.47 0 0 1-.667-1.689zm.777 1.955c.526.541 1.25.801 2.143.801v-.4c-.813 0-1.423-.234-1.857-.68zm2.143.801c.815 0 1.48-.186 1.967-.585l-.254-.31c-.392.322-.955.495-1.713.495zm1.97-.587c.485-.413.73-.949.73-1.593h-.4c0 .53-.195.953-.59 1.288zm.73-1.593c0-.531-.144-.986-.446-1.348l-.308.256c.232.278.354.636.354 1.092zm-.44-1.341c-.28-.368-.712-.679-1.276-.94l-.168.362c.53.246.898.522 1.125.82zm-1.272-.939q-.839-.408-2.146-.83l-.123.38q1.291.418 2.093.81zm-2.147-.83c-1.138-.367-1.953-.864-2.468-1.478l-.306.256c.579.693 1.47 1.222 2.652 1.602zm-2.466-1.477c-.514-.627-.775-1.394-.775-2.313h-.4c0 1 .286 1.86.865 2.567zM20.72 9.46c0-1.052.377-1.888 1.13-2.528l-.26-.304c-.847.72-1.27 1.67-1.27 2.832zm1.13-2.528c.753-.64 1.801-.972 3.17-.972v-.4c-1.431 0-2.583.348-3.43 1.068zm3.17-.972c1.325 0 2.368.343 3.15 1.012l.26-.304c-.871-.745-2.015-1.108-3.41-1.108zm3.152 1.013c.775.65 1.182 1.56 1.208 2.751l.4-.008c-.028-1.288-.474-2.313-1.352-3.05zM29.58 9.52h-2.26v.4h2.26zm-2.06.2a2 2 0 0 0-.31-1.064l-.34.208q.251.416.25.856zm-.307-1.06a2.34 2.34 0 0 0-.873-.853l-.2.346q.478.276.727.708zm-.868-.85c-.385-.237-.85-.35-1.385-.35v.4c.479 0 .867.1 1.175.29zm-1.38-.35c-.664-.014-1.236.149-1.705.5l.24.32c.385-.289.866-.433 1.456-.42zm-1.702.498c-.48.345-.723.825-.723 1.422h.4c0-.47.183-.83.557-1.098zM22.54 9.38c0 .716.29 1.29.863 1.702l.234-.325c-.467-.334-.697-.787-.697-1.377zm.866 1.704c.545.377 1.414.758 2.591 1.146l.126-.38c-1.17-.385-1.994-.751-2.49-1.094zm2.592 1.146a8.8 8.8 0 0 1 1.897.86l.21-.34a9.2 9.2 0 0 0-1.983-.9zm1.901.863a3.5 3.5 0 0 1 1.27 1.23l.343-.206a3.9 3.9 0 0 0-1.412-1.37zm1.273 1.235c.307.479.468 1.105.468 1.892h.4c0-.84-.172-1.547-.532-2.108zm.468 1.892q0 1.066-.53 1.936l.34.208q.59-.97.59-2.144zm-.53 1.934q-.526.849-1.54 1.368l.18.356q1.106-.561 1.7-1.512zm-1.542 1.369c-.659.341-1.465.517-2.428.517v.4c1.01 0 1.884-.184 2.612-.562zm8.844.477h-.2v.2h.2zm0-14v-.2h-.2V6zm7.38.56-.095.176.003.002zm1.54 1.5-.177.092zm0 4.4-.177-.092zm-1.54 1.52.092.178.003-.002zm-5.26.54v-.2h-.2v.2zm0 5.48v.2h.2V20zm0-7.38h-.2v.2h.2zm4.5-.64-.141-.141-.002.002zm0-3.42-.146.137.005.004zm-4.5-.66v-.2h-.2v.2zM36.612 20V6h-.4v14zm-.2-13.8h4.74v-.4h-4.74zm4.74 0c1.045 0 1.89.183 2.545.536l.19-.352c-.731-.394-1.646-.584-2.735-.584zm2.548.537c.66.343 1.142.815 1.455 1.415l.355-.184c-.354-.68-.899-1.208-1.626-1.585zm1.455 1.415q.476.91.477 2.108h.4q.002-1.282-.522-2.292zm.477 2.108c0 .8-.16 1.5-.477 2.108l.355.184q.523-1.01.522-2.292zm-.477 2.108c-.313.6-.796 1.08-1.458 1.436l.19.352c.725-.39 1.269-.925 1.623-1.604zM43.7 13.803c-.656.34-1.502.517-2.548.517v.4c1.088 0 2.002-.183 2.732-.562zm-2.548.517h-2.62v.4h2.62zm-2.82.2V20h.4v-5.48zm.2 5.28h-2.12v.4h2.12zm0-6.98h2.52v-.4h-2.52zm2.52 0c.933 0 1.657-.219 2.124-.7l-.288-.28c-.36.372-.955.58-1.836.58zm2.122-.699c.47-.47.698-1.099.698-1.861h-.4c0 .678-.2 1.197-.581 1.579zm.698-1.861c0-.75-.228-1.37-.698-1.841l-.283.282c.383.383.581.896.581 1.559zm-.694-1.837c-.467-.497-1.192-.723-2.126-.723v.4c.88 0 1.474.214 1.834.597zM41.052 7.7h-2.52v.4h2.52zm-2.72.2v4.72h.4V7.9zm15.712 11.46.116-.163zm-1.9-2.5-.185.076zm0-7.72-.185-.075zm1.9-2.5-.115-.163zm5.88 0-.117.162.002.001zm1.9 2.5.186-.075zm0 7.72.186.076zm-1.9 2.5-.115-.163h-.002zm-.52-2.46.165.113h.001zm0-7.78-.165.112v.001zm-4.86 0-.165-.112zm0 7.78-.166.11.002.003zm2.44 3.14c-1.097 0-2.035-.283-2.824-.843l-.231.326c.864.614 1.886.917 3.055.917zm-2.824-.843c-.791-.562-1.402-1.362-1.83-2.412l-.37.15c.451 1.11 1.106 1.976 1.969 2.588zm-1.83-2.412c-.428-1.05-.646-2.31-.646-3.785h-.4q-.002 2.27.675 3.936zM51.684 13q.002-2.21.646-3.785l-.37-.15q-.678 1.666-.676 3.935zm.646-3.785c.428-1.05 1.039-1.85 1.83-2.412l-.231-.326c-.863.612-1.518 1.478-1.97 2.588zm1.83-2.412c.789-.56 1.727-.843 2.824-.843v-.4c-1.17 0-2.19.303-3.055.917zm2.824-.843c1.111 0 2.049.284 2.823.842l.234-.324c-.852-.615-1.874-.918-3.057-.918zm2.825.843c.79.562 1.402 1.362 1.83 2.412l.37-.15c-.452-1.11-1.107-1.976-1.969-2.588zm1.83 2.412q.644 1.574.645 3.785h.4q.002-2.27-.674-3.935zM62.284 13q-.002 2.21-.645 3.785l.37.15c.453-1.11.675-2.423.675-3.935zm-.645 3.785c-.428 1.05-1.04 1.85-1.83 2.412l.231.326c.862-.612 1.517-1.478 1.97-2.587zm-1.832 2.413c-.774.558-1.712.842-2.823.842v.4c1.183 0 2.205-.303 3.057-.918zm-2.823-.758c1.072 0 1.938-.485 2.585-1.427l-.33-.226c-.58.844-1.327 1.253-2.255 1.253zm2.586-1.428c.645-.953.954-2.299.954-4.012h-.4c0 1.674-.303 2.928-.885 3.788zM60.524 13c0-1.713-.309-3.053-.955-3.993l-.33.226c.581.846.885 2.093.885 3.767zm-.954-3.992c-.646-.956-1.512-1.448-2.586-1.448v.4c.927 0 1.674.414 2.255 1.272zM56.984 7.56c-1.085 0-1.958.492-2.605 1.448l.331.224c.58-.857 1.334-1.272 2.274-1.272zm-2.606 1.448c-.631.94-.934 2.28-.934 3.992h.4c0-1.675.298-2.922.866-3.768zM53.444 13c0 1.712.303 3.057.934 4.01l.333-.22c-.57-.86-.867-2.116-.867-3.79zm.935 4.013c.648.943 1.52 1.427 2.605 1.427v-.4c-.942 0-1.696-.41-2.275-1.253zM71.918 20h-.2v.2h.2zm0-12.1h.2v-.2h-.2zm-3.76 0h-.2v.2h.2zm0-1.9v-.2h-.2V6zm9.64 0h.2v-.2h-.2zm0 1.9v.2h.2v-.2zm-3.76 0v-.2h-.2v.2zm0 12.1v.2h.2V20zm-1.92 0V7.9h-.4V20zm-.2-12.3h-3.76v.4h3.76zm-3.56.2V6h-.4v1.9zm-.2-1.7h9.64v-.4h-9.64zm9.44-.2v1.9h.4V6zm.2 1.7h-3.76v.4h3.76zm-3.96.2V20h.4V7.9zm.2 11.9h-2.12v.4h2.12zm12.472-.1-.088.18zm-1.74-1.54-.17.105.001.003zm-.64-2.38v-.2h-.203l.003.203zm2.24 0 .2-.004-.004-.196h-.196zm.72 1.82-.147.135.003.005zm3.84.2.126.155.003-.002zm.26-2.66-.16.121.006.007zm-1.2-.88-.088.18.004.002zm-2.12-.82.061-.19zm-2.56-1.54-.155.127.001.001zm6.96-5.08-.13.152.001.001zm1.28 2.9v.2h.204l-.004-.204zm-2.26 0h-.2v.2h.2zm-.28-.96-.173.1.002.004zm-.8-.78-.105.17.005.003zm-1.28-.32-.005.2h.005zm-1.58.46.117.162.003-.002zm.14 2.8-.117.162.003.002zm2.54 1.12-.063.19zm1.94.88-.106.17.005.003zm1.34 1.3-.172.103.003.005zm-.06 4.04.17.106v-.002zm-1.62 1.44-.091-.178h-.001zm-2.52.34q-1.442-.001-2.513-.52l-.174.36c.778.376 1.676.56 2.687.56zm-2.512-.52a4.04 4.04 0 0 1-1.66-1.468l-.337.216a4.44 4.44 0 0 0 1.82 1.611zm-1.658-1.465q-.588-.945-.61-2.278l-.4.006q.018 1.427.67 2.482zm-.81-2.075h2.24v-.4h-2.24zm2.04-.196c.014.754.272 1.408.773 1.951l.294-.27a2.47 2.47 0 0 1-.667-1.689zm.776 1.955c.527.541 1.25.801 2.144.801v-.4c-.813 0-1.423-.234-1.857-.68zm2.144.801c.815 0 1.48-.186 1.966-.585l-.253-.31c-.393.322-.955.495-1.713.495zm1.97-.587c.485-.413.73-.949.73-1.593h-.4c0 .53-.195.953-.59 1.288zm.73-1.593c0-.531-.145-.986-.447-1.348l-.307.256c.231.278.354.636.354 1.092zm-.441-1.341c-.28-.368-.711-.679-1.275-.94l-.168.362c.529.246.898.522 1.124.82zm-1.272-.939q-.838-.408-2.146-.83l-.123.38q1.292.418 2.094.81zm-2.146-.83c-1.139-.367-1.954-.864-2.468-1.478l-.307.256c.58.693 1.471 1.222 2.653 1.602zm-2.467-1.477c-.514-.627-.774-1.394-.774-2.313h-.4c0 1 .286 1.86.865 2.567zM84.69 9.46c0-1.052.377-1.888 1.13-2.528l-.26-.304c-.847.72-1.27 1.67-1.27 2.832zm1.13-2.528c.753-.64 1.801-.972 3.17-.972v-.4c-1.432 0-2.583.348-3.43 1.068zm3.17-.972c1.324 0 2.368.343 3.15 1.012l.26-.304c-.872-.745-2.015-1.108-3.41-1.108zm3.151 1.013c.776.65 1.183 1.56 1.209 2.751l.4-.008c-.028-1.288-.474-2.313-1.352-3.05zM93.55 9.52h-2.26v.4h2.26zm-2.06.2a2 2 0 0 0-.31-1.064l-.341.208q.252.416.25.856zm-.308-1.06a2.34 2.34 0 0 0-.872-.853l-.2.346q.477.276.727.708zm-.867-.85c-.385-.237-.85-.35-1.385-.35v.4c.478 0 .867.1 1.175.29zm-1.381-.35c-.663-.014-1.236.149-1.704.5l.24.32c.385-.289.865-.433 1.456-.42zm-1.701.498c-.48.345-.723.825-.723 1.422h.4c0-.47.183-.83.556-1.098zm-.723 1.422c0 .716.29 1.29.863 1.702l.233-.325c-.466-.334-.696-.787-.696-1.377zm.866 1.704c.544.377 1.413.758 2.591 1.146l.125-.38c-1.169-.385-1.993-.751-2.488-1.094zm2.591 1.146q1.081.354 1.898.86l.21-.34a9.2 9.2 0 0 0-1.983-.9zm1.902.863a3.5 3.5 0 0 1 1.27 1.23l.342-.206a3.9 3.9 0 0 0-1.41-1.37zm1.272 1.235c.308.479.469 1.105.469 1.892h.4c0-.84-.172-1.547-.532-2.108zm.469 1.892q0 1.066-.531 1.936l.342.208q.59-.97.589-2.144zm-.53 1.934q-.526.849-1.541 1.368l.181.356q1.106-.561 1.7-1.512zm-1.542 1.369c-.659.341-1.465.517-2.428.517v.4c1.01 0 1.884-.184 2.612-.562z" mask="url(#a)"/><path stroke="#212121" stroke-width="2.5" d="M6 4v8"/><path stroke="#212121" stroke-linejoin="bevel" stroke-width="2.5" d="m1 9 5 4 5-4"/><circle cx="6" cy="18" r="2" fill="#212121"/></svg>